<svg xmlns="http://www.w3.org/2000/svg" viewBox="0 0 1228.2 241.2">
  <path fill="#ed193f" d="M104.3 156.7c5.5.3 10.2-3.9 10.6-9.4.3-5.5-3.9-10.2-9.4-10.6-5.5-.3-10.2 3.9-10.6 9.4-.3 5.5 3.9 10.3 9.4 10.6zM26.2 133.8c7.2.4 13.5-5.1 13.9-12.3.4-7.2-5.1-13.5-12.3-13.9-7.2-.4-13.5 5.1-13.9 12.3-.4 7.2 5.1 13.5 12.3 13.9zM86 51.6c5.9 0 10.6-4.7 10.6-10.6 0-5.9-4.7-10.6-10.6-10.6-5.9 0-10.6 4.7-10.6 10.6 0 5.9 4.7 10.6 10.6 10.6zM73.3 124.3c9.4 0 17-7.6 17-17s-7.6-17-17-17-17 7.6-17 17c.1 9.4 7.7 17 17 17zM123.1 100.3c13.3 0 24.1-10.8 24.1-24.1s-10.8-24.1-24.1-24.1S99 62.9 99 76.2s10.8 24.1 24.1 24.1zM31.9 88c17.6 0 31.9-14.3 31.9-31.9 0-17.6-14.3-31.9-31.9-31.9C14.3 24.2 0 38.5 0 56.1 0 73.7 14.3 88 31.9 88zM61.6 192.6c12.8.8 23.8-9 24.6-21.8.8-12.8-9-23.8-21.8-24.6-12.8-.8-23.8 9-24.6 21.8-.7 12.8 9 23.8 21.8 24.6zM132.5 36.8c10.1 0 18.4-8.2 18.4-18.4 0-10.1-8.2-18.4-18.4-18.4-10.1 0-18.4 8.2-18.4 18.4s8.2 18.4 18.4 18.4z"/>
  <path fill="#141412" d="M671.8 137.3c0 10.8 8.3 18.9 19.4 18.9 11.2 0 19.4-8.2 19.4-18.9s-8.3-18.9-19.4-18.9a18.8 18.8 0 00-19.4 18.9zm9.7 0c0-5.8 4.1-10.1 9.8-10.1 5.7 0 9.8 4.3 9.8 10.1s-4.1 10.2-9.8 10.2c-5.7 0-9.8-4.3-9.8-10.2zm46.5-18.2h-9.4v36.4h9.7v-18.6c0-7.5 4.5-9.8 8.8-9.8 1.9 0 3.5.5 4.5.8l.8-8.7c-.8-.3-2.6-.8-4.7-.8-4.1 0-7.6 1.9-9.5 5.7zm35.3 37.2c5.3 0 9.6-1.9 11.8-4.9v2.6c0 6.1-6 8.8-12.1 8.8-4.7 0-10-1.3-12.7-2.7l-1.1 8.3c3.2 1.6 8.6 3 14.5 3 11.3 0 21.1-5.7 21.1-17.2v-35.1h-9.3l-.2 4.4c-2.4-3-6.2-5.2-12-5.2-10.3 0-17.6 7.8-17.6 18.9 0 11.1 7.3 19.1 17.6 19.1zm11.9-19.1c0 5.8-4.2 10.3-9.9 10.3-5.8 0-9.9-4.5-9.9-10.3 0-5.9 4.1-10.2 9.9-10.2 5.8.1 9.9 4.5 9.9 10.2zm34.8 19.1c5.6 0 9.5-2.1 11.9-5.2l.2 4.4h9.5v-36.4H822l-.2 4.4c-2.4-3-6.2-5.2-11.9-5.2-10 0-17.5 7.8-17.5 18.9.1 11.1 7.6 19.1 17.6 19.1zm11.8-19.1c0 5.8-4.1 10.4-9.9 10.4-5.8 0-9.8-4.5-9.8-10.4 0-5.8 3.9-10.2 9.8-10.2 5.8.1 9.9 4.5 9.9 10.2zm40.3-18.8c-5.4 0-9.3 2.4-11.2 5l-.2-4.2h-9.2v36.4h9.7v-20.3c0-5 3.8-7.8 8.1-7.8 4.2 0 7.5 2.7 7.5 7.8v20.3h9.7v-22.8c0-8.9-6-14.4-14.4-14.4zm33.6 37.1v-36.4H886v36.4zm-4.9-42.5c3.3 0 5.6-2.3 5.6-5.6s-2.3-5.6-5.6-5.6-5.6 2.3-5.6 5.6c0 3.4 2.3 5.6 5.6 5.6zm28.4 20.3c-4.4-.8-5.9-1.7-5.9-3.5 0-2.2 2.3-3.3 7.1-3.3 3.5 0 8.3.9 11 2l.8-7.9a32.9 32.9 0 00-12.3-2.3c-9.7 0-16 4.7-16 11.4 0 6 3.4 9.6 10.4 10.8l4.4.8c4.2.8 5.8 1.7 5.8 3.6 0 2.2-2 3.1-6.7 3.1a35 35 0 01-12.2-2.5l-1 8c3.3 1.6 8.6 2.6 14 2.6 9.3 0 15.4-4.1 15.4-11.4 0-6.3-3.6-9.5-10.8-10.9zm37.7 23c5.6 0 9.5-2.1 11.9-5.2l.2 4.4h9.5v-36.4H969l-.2 4.4c-2.4-3-6.2-5.2-11.9-5.2-10 0-17.5 7.8-17.5 18.9 0 11.1 7.5 19.1 17.5 19.1zm11.9-19.1c0 5.8-4.1 10.4-9.9 10.4-5.8 0-9.8-4.5-9.8-10.4 0-5.8 3.9-10.2 9.8-10.2a10 10 0 019.9 10.2zm42.2-10v-8.1h-10.5v-11.7H991v11.7h-6.2v8.1h6.1v16.4c0 8.6 5.4 12.7 13.4 12.7 3 0 6.6-.6 8.8-1.4l-.9-8.1c-2 .6-4.4.9-6.2.9-3.3 0-5.4-1.7-5.4-5.5v-15zm18.3 28.3v-36.4h-9.7v36.4zm-4.9-42.5c3.3 0 5.6-2.3 5.6-5.6s-2.3-5.6-5.6-5.6-5.6 2.3-5.6 5.6c0 3.4 2.3 5.6 5.6 5.6zm12.4 24.3c0 10.8 8.3 18.9 19.4 18.9 11.2 0 19.4-8.2 19.4-18.9s-8.3-18.9-19.4-18.9a18.8 18.8 0 00-19.4 18.9zm9.7 0c0-5.8 4.1-10.1 9.8-10.1 5.7 0 9.8 4.3 9.8 10.1s-4.1 10.2-9.8 10.2c-5.7 0-9.8-4.3-9.8-10.2zm57.3-18.9c-5.4 0-9.3 2.4-11.2 5l-.2-4.2h-9.2v36.4h9.7v-20.3c0-5 3.8-7.8 8.1-7.8 4.2 0 7.5 2.7 7.5 7.8v20.3h9.7v-22.8c0-8.9-5.9-14.4-14.4-14.4zm55.1 26.6a28.9 28.9 0 01-12.3 2.8c-6 0-10.5-2.4-11.5-7.5h26.3c2.4-13.5-6.1-21.9-17.3-21.9a18.1 18.1 0 00-18.7 18.9c0 11.3 8.3 18.9 21.1 18.9 5.3 0 10.2-1.4 13.7-3.4zm-23.7-11.3c.4-4.1 3.9-7.2 9.1-7.2 5 0 8.1 3.1 8.3 7.2zm55.3-15.3c-5.4 0-9.3 2.4-11.2 5l-.2-4.2h-9.2v36.4h9.7v-20.3c0-5 3.8-7.8 8.1-7.8 4.2 0 7.5 2.7 7.5 7.8v20.3h9.7v-22.8c-.1-8.9-6-14.4-14.4-14.4zM157.5 118.4c-5.4 0-9.3 2.4-11.2 5l-.2-4.2h-9.2v36.4h9.7v-20.3c0-5 3.8-7.8 8.1-7.8 4.2 0 7.5 2.7 7.5 7.8v20.3h9.7v-22.8c0-8.9-6-14.4-14.4-14.4zm55.3 26.6a28.9 28.9 0 01-12.3 2.8c-6 0-10.5-2.4-11.5-7.5h26.3c2.4-13.5-6.1-21.9-17.3-21.9a18.1 18.1 0 00-18.7 18.9c0 11.3 8.3 18.9 21.1 18.9 5.3 0 10.2-1.4 13.7-3.4zm-23.6-11.3c.4-4.1 3.9-7.2 9.1-7.2 5 0 8.1 3.1 8.3 7.2zm58.3 5.9c0 4.6-3 7.8-7.5 7.8-4.3 0-7.3-3.1-7.3-7.8v-20.4H223v21.6c0 9.1 6.7 15.5 17 15.5s17.2-6.5 17.2-15.7v-21.4h-9.7zm50.3 5.4a28.9 28.9 0 01-12.3 2.8c-6 0-10.5-2.4-11.5-7.5h26.3c2.4-13.5-6.1-21.9-17.3-21.9a18.1 18.1 0 00-18.7 18.9c0 11.3 8.3 18.9 21.1 18.9 5.3 0 10.2-1.4 13.7-3.4zm-23.6-11.3c.4-4.1 3.9-7.2 9.1-7.2 5 0 8.1 3.1 8.3 7.2zm70.3 22.6c5.3 0 9.4-1.8 11.8-4.6l.2 3.9h9.5v-53.4h-9.5v21.4c-2.4-3-6.2-5.2-12-5.2-10.3 0-17.6 7.8-17.6 18.9-.1 11 7.3 19 17.6 19zm11.9-19c0 5.8-4.2 10.3-9.9 10.3-5.8 0-9.9-4.5-9.9-10.3 0-5.9 4.1-10.2 9.9-10.2 5.7 0 9.9 4.4 9.9 10.2zm51 7.7a28.9 28.9 0 01-12.3 2.8c-6 0-10.5-2.4-11.5-7.5h26.3c2.4-13.5-6.1-21.9-17.3-21.9a18.1 18.1 0 00-18.7 18.9c0 11.3 8.3 18.9 21.1 18.9 5.3 0 10.2-1.4 13.7-3.4zm-23.6-11.3c.4-4.1 3.9-7.2 9.1-7.2 5 0 8.1 3.1 8.3 7.2zm58.3 5.9c0 4.6-3 7.8-7.5 7.8-4.3 0-7.3-3.1-7.3-7.8v-20.4h-9.7v21.6c0 9.1 6.7 15.5 17 15.5s17.2-6.5 17.2-15.7v-21.4h-9.7zm41.6-12.4v-8.1h-10.5v-11.7h-9.4v11.7h-6.2v8.1h6.1v16.4c0 8.6 5.4 12.7 13.4 12.7 3 0 6.6-.6 8.8-1.4l-.9-8.1c-2 .6-4.4.9-6.2.9-3.3 0-5.4-1.7-5.4-5.5v-15zm22.1 6.1c-4.4-.8-5.9-1.7-5.9-3.5 0-2.2 2.3-3.3 7.1-3.3 3.5 0 8.3.9 11 2l.8-7.9a32.9 32.9 0 00-12.3-2.3c-9.7 0-16 4.7-16 11.4 0 6 3.4 9.6 10.4 10.8l4.4.8c4.2.8 5.8 1.7 5.8 3.6 0 2.2-2 3.1-6.7 3.1a35 35 0 01-12.2-2.5l-1 8c3.3 1.6 8.6 2.6 14 2.6 9.3 0 15.4-4.1 15.4-11.4 0-6.3-3.6-9.5-10.8-10.9zm19.9 4c0 11.3 8.5 19 20.5 19 4.4 0 8-1 11.8-2.7l-1.1-8.6a22.3 22.3 0 01-10 2.4c-6.6 0-11.4-3.9-11.4-10.1 0-6.6 5.1-10 11.7-10 3.6 0 6.9.8 9.5 2l.8-8.5c-3.1-1.4-7-2.4-11.4-2.4-11.8 0-20.4 7.1-20.4 18.9zm60.7-18.9c-5.2 0-9 2.3-10.9 4.6v-20.8h-9.7v53.3h9.7v-20.3c0-5 3.8-7.8 8-7.8s7.4 2.7 7.4 7.8v20.3h9.7v-22.8c.1-8.8-5.8-14.3-14.2-14.3zm55 26.6a28.9 28.9 0 01-12.3 2.8c-6 0-10.5-2.4-11.5-7.5h26.3c2.4-13.5-6.1-21.9-17.3-21.9a18.1 18.1 0 00-18.7 18.9c0 11.3 8.3 18.9 21.1 18.9 5.3 0 10.2-1.4 13.7-3.4zm-23.6-11.3c.4-4.1 3.9-7.2 9.1-7.2 5 0 8.1 3.1 8.3 7.2z"/>
  <path fill="#ed193f" d="M1221.5 155.8c3.9 0 6.7-2.7 6.7-6.6 0-4-2.8-6.7-6.7-6.7-3.9 0-6.6 2.8-6.6 6.7 0 3.9 2.7 6.6 6.6 6.6z"/>
  <path fill="#141412" d="M156.9 231.4h3.7v-33.3h-3.7v14.3a10.4 10.4 0 00-8.7-4.2c-6.5 0-11.5 5-11.5 11.8 0 6.8 5 11.9 11.5 11.9 4.1 0 7-1.7 8.7-4.2zm-8.3-3c-4.8 0-8.1-3.7-8.1-8.5 0-4.7 3.4-8.4 8.1-8.4 4.9 0 8.4 3.6 8.4 8.4 0 4.8-3.6 8.5-8.4 8.5zm42.5-19.7h-3.7v3.7a10.4 10.4 0 00-8.7-4.2c-6.5 0-11.5 5-11.5 11.8 0 6.8 5 11.9 11.5 11.9 4.1 0 7-1.8 8.7-4.2v3.7h3.7zm-12.2 2.9c4.9 0 8.4 3.6 8.4 8.4 0 4.7-3.5 8.5-8.4 8.5-4.8 0-8.1-3.7-8.1-8.5.1-4.7 3.5-8.4 8.1-8.4zm27.2 6.5c-3.2-.6-4.8-1.2-4.8-3.3 0-2.1 2-3.3 5.7-3.3 2.3 0 4.8.5 6.6 1.2l.5-3.3c-1.8-.7-4.5-1.2-7.3-1.2-5.7 0-9.2 2.7-9.2 6.7 0 3.5 2.4 5.4 6.1 6.2l3 .6c3.2.6 5 1.5 5 3.5 0 2.2-1.9 3.3-5.6 3.3-2.7 0-5.7-.7-7.7-1.7l-.6 3.4c2.2 1 5.3 1.7 8.5 1.7 5.6 0 9.1-2.4 9.1-6.8 0-3.5-2.4-5.6-6.9-6.5zm27.8-9.4v32.1h3.7v-13.2c1.7 2.4 4.7 4.2 8.7 4.2 6.5 0 11.5-5 11.5-11.8 0-6.8-5-11.9-11.5-11.9a10 10 0 00-8.7 4.2v-3.7h-3.7zm12.1 2.9c4.8 0 8.1 3.7 8.1 8.5 0 4.7-3.4 8.4-8.1 8.4a8.1 8.1 0 01-8.4-8.4c0-4.8 3.5-8.5 8.4-8.5zm16.7 8.4c0 6.7 5.1 11.8 12 11.8s12-5.2 12-11.8c0-6.7-5.1-11.8-12-11.8s-12 5.1-12 11.8zm3.7 0c0-4.7 3.5-8.3 8.3-8.3 4.8 0 8.3 3.6 8.3 8.3 0 4.7-3.5 8.3-8.3 8.3a8.1 8.1 0 01-8.3-8.3zm33.4-1.9c-3.2-.6-4.8-1.2-4.8-3.3 0-2.1 2-3.3 5.7-3.3 2.3 0 4.8.5 6.6 1.2l.5-3.3c-1.8-.7-4.5-1.2-7.3-1.2-5.7 0-9.2 2.7-9.2 6.7 0 3.5 2.4 5.4 6.1 6.2l3 .6c3.2.6 5 1.5 5 3.5 0 2.2-1.9 3.3-5.6 3.3-2.7 0-5.7-.7-7.7-1.7l-.6 3.4c2.2 1 5.3 1.7 8.5 1.7 5.6 0 9.1-2.4 9.1-6.8 0-3.5-2.4-5.6-6.9-6.5zm27.9-6.2v-3.3h-7.3v-7.3h-3.7v7.3h-4.2v3.3h4.2v12.9c0 4.7 3 7 7.3 7 1.8 0 3.9-.3 4.8-.8l-.5-3.3a10 10 0 01-3.9.7c-2.3 0-4-1.2-4-4.3v-12.2zm33.9-3.7a9 9 0 00-8.3 4.8c-1.4-3-4.3-4.8-8.3-4.8a8.5 8.5 0 00-7.5 3.9v-3.4h-3.7v22.7h3.7v-12.9c0-4.1 3.1-6.7 6.8-6.7 3.9 0 6.1 2.5 6.1 6.7v12.9h3.7v-13.1c0-4 3.1-6.6 6.7-6.6 4 0 6.2 2.5 6.2 6.7v12.9h3.7v-13.8c.3-5.5-3.2-9.3-9.1-9.3zm17 23.2h3.7v-22.7h-3.7zm1.8-28.1c1.4 0 2.4-1 2.4-2.4s-1-2.3-2.4-2.3-2.3.9-2.3 2.3c0 1.5.9 2.4 2.3 2.4zm28.5 24.3v2.5c0 5.1-3.9 7.7-9.1 7.7-2.8 0-5.8-.7-8.3-1.9l-.6 3.4c2.4 1.2 6.1 1.9 9 1.9 8.3 0 12.8-4.9 12.8-11.5v-21.2H409v3.7a10.4 10.4 0 00-8.7-4.2c-6.5 0-11.5 5-11.5 11.8 0 6.8 5 11.9 11.5 11.9 3.8.1 6.9-1.7 8.6-4.1zm-8.4-16c4.9 0 8.4 3.6 8.4 8.4 0 4.7-3.5 8.5-8.4 8.5-4.8 0-8.1-3.7-8.1-8.5 0-4.7 3.3-8.4 8.1-8.4zm23.8-2.9h-3.7v22.7h3.7v-12.6c0-5.1 3-7 6-7 1.5 0 2.4.3 3 .6l.3-3.5c-.5-.2-1.6-.6-3.2-.6a6.3 6.3 0 00-6.1 3.9zm36.3 0h-3.7v3.7a10.4 10.4 0 00-8.7-4.2c-6.5 0-11.5 5-11.5 11.8 0 6.8 5 11.9 11.5 11.9 4.1 0 7-1.8 8.7-4.2v3.7h3.7zm-12.2 2.9c4.9 0 8.4 3.6 8.4 8.4 0 4.7-3.5 8.5-8.4 8.5-4.8 0-8.1-3.7-8.1-8.5 0-4.7 3.3-8.4 8.1-8.4zm31.4-3.4a8.7 8.7 0 00-7.6 3.9v-3.4h-3.7v22.7h3.7v-12.8c0-4.1 3.2-6.8 7-6.8 4.1 0 6.5 2.3 6.5 6.7v12.9h3.7v-13.8c0-5.9-3.6-9.4-9.6-9.4zm29.1 3.7v-3.3h-7.3v-7.3h-3.7v7.3h-4.2v3.3h4.2v12.9c0 4.7 3 7 7.3 7 1.8 0 3.9-.3 4.8-.8l-.5-3.3a10 10 0 01-3.9.7c-2.3 0-4-1.2-4-4.3v-12.2zm6 19.5h3.7v-22.7h-3.7zm1.8-28.1c1.4 0 2.4-1 2.4-2.4s-1-2.3-2.4-2.3-2.3.9-2.3 2.3c.1 1.5 1 2.4 2.3 2.4zm16.8 14.8c-3.2-.6-4.8-1.2-4.8-3.3 0-2.1 2-3.3 5.7-3.3 2.3 0 4.8.5 6.6 1.2l.5-3.3c-1.8-.7-4.5-1.2-7.3-1.2-5.7 0-9.2 2.7-9.2 6.7 0 3.5 2.4 5.4 6.1 6.2l3 .6c3.2.6 5 1.5 5 3.5 0 2.2-1.9 3.3-5.6 3.3-2.7 0-5.7-.7-7.7-1.7l-.6 3.4c2.2 1 5.3 1.7 8.5 1.7 5.6 0 9.1-2.4 9.1-6.8 0-3.5-2.4-5.6-6.9-6.5zm13.8 1.8c0 7 5.2 11.9 12.8 11.9a19 19 0 007.2-1.6l-.6-3.4c-1.7.9-4.3 1.5-6.6 1.5-5.3 0-9-3.4-9-8.4 0-4.9 3.6-8.3 9-8.3 2.6 0 4.9.7 6.4 1.4l.5-3.4c-1.1-.6-3.7-1.5-6.8-1.5-7.7.1-12.9 4.9-12.9 11.8zm36.8-11.7a8.7 8.7 0 00-7.6 3.9v-14h-3.7v33.3h3.7v-12.8c0-4.1 3.2-6.8 7-6.8 4.1 0 6.4 2.3 6.4 6.7v12.9h3.7v-13.8c0-5.9-3.6-9.4-9.5-9.4zm36.4 18a15.5 15.5 0 01-8.1 2.2c-4.4 0-8.2-2.5-8.9-6.9h18.6c1.2-6.9-3.2-13.2-10.8-13.2-6.8 0-11.7 5.1-11.7 11.8 0 7 5.2 11.8 12.9 11.8 3.1 0 5.9-.7 8.5-2.3zm-16.8-7.9c.3-3.9 3.5-6.6 7.8-6.6s7 2.7 7.3 6.6zm48.7-10.1a8.7 8.7 0 00-7.6 3.9v-3.4H641v22.7h3.7v-12.8c0-4.1 3.2-6.8 7-6.8 4.1 0 6.5 2.3 6.5 6.7v12.9h3.7v-13.8c.1-5.9-3.5-9.4-9.5-9.4zm36.5 18a15.5 15.5 0 01-8.1 2.2c-4.4 0-8.2-2.5-8.9-6.9h18.6c1.2-6.9-3.2-13.2-10.8-13.2-6.8 0-11.7 5.1-11.7 11.8 0 7 5.2 11.8 12.9 11.8 3.1 0 5.9-.7 8.5-2.3zm-16.8-7.9c.3-3.9 3.5-6.6 7.8-6.6s7 2.7 7.3 6.6zm37-6.4v-3.3h-7.3v-7.3h-3.7v7.3h-4.2v3.3h4.2v12.9c0 4.7 3 7 7.3 7 1.8 0 3.9-.3 4.8-.8l-.5-3.3a10 10 0 01-3.9.7c-2.3 0-4-1.2-4-4.3v-12.2zm5.3 19.5h17.4v-3.3h-13.1l12.4-16.3v-3.2h-16.6v3.3h12.1l-12.4 16.3v3.2zm36.9-22.5l-6.1 18.8-5.7-19.1h-4l7.2 22.7h5l5.7-17.3 5.7 17.3h5l7-22.7h-4l-5.7 19.2-6.1-19h-4zm43.8 17.3a15.5 15.5 0 01-8.1 2.2c-4.4 0-8.2-2.5-8.9-6.9h18.6c1.2-6.9-3.2-13.2-10.8-13.2-6.8 0-11.7 5.1-11.7 11.8 0 7 5.2 11.8 12.9 11.8 3.1 0 5.9-.7 8.5-2.3zm-16.8-7.9c.3-3.9 3.5-6.6 7.8-6.6s7 2.7 7.3 6.6zm28.8-9.6h-3.7v22.7h3.7v-12.6c0-5.1 3-7 6-7 1.5 0 2.4.3 3 .6l.3-3.5c-.5-.2-1.6-.6-3.2-.6a6.3 6.3 0 00-6.1 3.9zm14.3 22.7h3.7v-10.1h4.7l7.3 10.1h4.4l-8.5-11.7 7.4-11.1h-4.2l-6.2 9.3h-4.9v-20h-3.7z"/>
</svg>
